<?xml version="1.0" encoding="UTF-8" standalone="no"?>
<svg
   version="1.1"
   id="svg2"
   viewBox="0 0 997.8951 329.2241"
   height="92.91436mm"
   width="281.62817mm">
  <g
     transform="translate(-14.655403,-515.9259)"
     id="layer1">
    <g
       transform="matrix(0.45681126,0,0,0.45681126,67.805009,569.07604)"
       id="g3480">
      <g
         transform="translate(0,-540.36)"
         id="g3428">
        <g
           id="g3430">
          <g
             id="g3432">
            <path
               d="m 213.769,651.94 0,0 c -5.499,0 -9.999,4.501 -9.999,10.003 l 0,51.216 -10.498,0 c 0,-0.2 0,-0.5 0,-0.7 0,-0.1 0,-0.2 0,-0.2 -3.5,-34.911 -36.995,-63.02 -71.79,-60.219 -5.499,0.4 -9.599,5.302 -9.199,10.803 0.4,5.502 5.299,9.603 10.798,9.203 23.597,-1.901 47.193,17.606 50.093,41.213 l -102.084,0 c -2.8,0 -5.499,1.2 -7.399,3.301 -1.9,2.101 -2.8,4.902 -2.5,7.702 1.7,17.005 10.698,33.211 24.596,44.614 12.098,9.803 26.796,15.205 41.294,15.205 2,0 4.099,-0.1 6.099,-0.3 27.996,-3.001 51.193,-24.308 58.092,-50.416 l 12.498,0 0,40.513 c 0,5.502 4.499,10.003 9.999,10.003 5.499,0 9.999,-4.501 9.999,-10.003 l 0,-111.634 c 0,-5.802 -4.499,-10.304 -9.999,-10.304 z m -82.688,111.836 c -10.998,1.2 -22.897,-2.601 -32.695,-10.503 -6.699,-5.402 -11.798,-12.404 -14.698,-20.006 l 86.688,0 c -6.2,16.004 -21.397,28.608 -39.295,30.509 z"
               id="path3434" />
            <path
               d="m 405.742,869.409 -50.293,-99.432 c -1.7,-3.401 -5.199,-5.502 -8.899,-5.502 -3.799,0 -7.199,2.101 -8.899,5.502 L 286.559,871.71 c -2.5,4.902 -0.5,10.903 4.399,13.404 1.4,0.7 3,1.1 4.499,1.1 3.699,0 7.199,-2.001 8.899,-5.502 l 17.597,-35.011 49.393,0 16.598,32.81 c 2.5,4.902 8.499,6.902 13.398,4.401 4.9,-2.599 6.899,-8.601 4.4,-13.503 l 0,0 z m -73.79,-43.814 14.598,-29.009 14.698,29.009 -29.296,0 z"
               id="path3436" />
            <path
               d="m 486.33,812.991 c -4.799,-31.31 -20.097,-60.319 -43.094,-81.826 -43.494,-40.613 -106.985,-49.516 -159.377,-23.808 -7.899,-71.023 -68.09,-126.54 -141.08,-126.54 -38.094,0 -73.889,14.705 -100.885,41.513 C 14.898,649.139 0,684.951 0,723.163 c 0,38.112 14.898,73.924 41.894,100.832 26.896,26.809 62.791,41.513 100.885,41.513 22.097,0 43.094,-5.102 61.791,-14.205 6.399,58.118 48.093,107.334 105.685,122.539 l 0.1,0 c 11.498,2.801 22.997,4.201 34.395,4.201 51.293,0 99.986,-27.709 125.482,-74.124 15.298,-27.507 20.897,-59.818 16.098,-90.928 z m -343.55,32.511 c -67.59,0 -122.682,-54.817 -122.682,-122.339 0,-67.421 55.092,-122.339 122.682,-122.339 67.29,0 121.982,54.917 121.982,122.339 0,67.422 -54.692,122.339 -121.982,122.339 z m 310.055,48.815 C 426.039,943.133 369.547,967.84 315.355,954.436 262.863,940.532 225.768,893.817 223.868,840 c 35.195,-24.608 58.692,-64.721 60.791,-110.335 46.493,-27.209 105.385,-20.907 144.979,16.205 40.794,38.012 50.293,99.032 23.197,148.447 z"
               id="path3438" />
            <path
               d="m 193.172,966.24 0,-0.1 c -0.1,-0.4 -0.2,-0.8 -0.3,-1.1 0,0 0,0 0,-0.1 -0.1,-0.3 -0.2,-0.7 -0.4,-1 0,-0.1 -0.1,-0.2 -0.2,-0.3 -0.1,-0.2 -0.3,-0.5 -0.4,-0.7 -0.1,-0.1 -0.1,-0.2 -0.2,-0.3 -0.2,-0.3 -0.4,-0.6 -0.6,-0.9 -0.2,-0.3 -0.5,-0.6 -0.8,-0.9 -0.1,-0.1 -0.1,-0.1 -0.2,-0.2 -0.2,-0.2 -0.5,-0.4 -0.7,-0.6 -0.1,-0.1 -0.2,-0.1 -0.3,-0.2 -0.2,-0.2 -0.5,-0.3 -0.7,-0.5 -0.1,-0.1 -0.2,-0.1 -0.3,-0.2 -0.3,-0.2 -0.7,-0.4 -1,-0.5 l -51.093,-20.607 c -5.099,-2.101 -10.898,0.4 -12.998,5.502 -2.1,5.102 0.4,10.903 5.499,13.004 l 34.195,13.804 c -18.797,10.103 -41.494,10.903 -61.191,1.5 l -0.1,0 C 76.488,960.339 60.79,934.931 61.39,906.922 c 0.1,-5.502 -4.199,-10.103 -9.799,-10.203 -5.499,-0.1 -10.099,4.201 -10.199,9.803 -0.9,35.911 19.397,68.622 51.493,83.527 11.998,5.702 24.796,8.503 37.595,8.503 10.898,0 21.797,-2.101 32.095,-6.102 l -9.099,22.207 c -2.1,5.102 0.4,11.004 5.499,13.004 1.2,0.5 2.5,0.7 3.799,0.7 3.899,0 7.699,-2.301 9.299,-6.202 l 20.597,-50.516 c 0,-0.1 0.1,-0.2 0.1,-0.3 -0.1,-0.1 -0.1,-0.2 0,-0.3 0.1,-0.3 0.2,-0.6 0.2,-0.8 0,-0.1 0,-0.2 0.1,-0.3 0.1,-0.4 0.1,-0.8 0.2,-1.2 0,-0.4 0,-0.7 0,-1.1 0,-0.1 0,-0.2 0,-0.3 0,-0.3 -0.1,-0.6 -0.1,-0.9 0.002,-0.103 0.002,-0.103 0.002,-0.203 z"
               id="path3440" />
            <path
               d="m 295.458,602.625 0,0.1 c 0.1,0.4 0.2,0.8 0.3,1.1 0,0 0,0 0,0.1 0.1,0.3 0.2,0.7 0.4,1 0,0.1 0.1,0.2 0.2,0.3 0.1,0.2 0.3,0.5 0.4,0.7 0.1,0.1 0.1,0.2 0.2,0.3 0.2,0.3 0.4,0.6 0.6,0.9 0.2,0.3 0.5,0.6 0.8,0.9 0.1,0.1 0.1,0.1 0.2,0.2 0.2,0.2 0.5,0.4 0.7,0.6 0.1,0.1 0.2,0.1 0.3,0.2 0.2,0.2 0.5,0.3 0.7,0.5 0.1,0.1 0.2,0.1 0.3,0.2 0.3,0.2 0.7,0.4 1,0.5 l 51.093,20.607 c 5.099,2.101 10.898,-0.4 12.998,-5.502 2.1,-5.102 -0.4,-10.903 -5.499,-13.004 l -34.195,-13.804 c 18.797,-10.103 41.494,-10.903 61.191,-1.5 l 0.1,0 c 24.896,11.504 40.594,36.912 39.994,64.921 -0.1,5.502 4.199,10.103 9.799,10.203 0.1,0 0.2,0 0.2,0 5.399,0 9.899,-4.301 9.999,-9.803 0.8,-36.011 -19.397,-68.822 -51.593,-83.627 l 0,0 c -22.297,-10.603 -47.393,-11.104 -69.59,-2.401 l 9.099,-22.207 c 2.1,-5.102 -0.4,-11.003 -5.499,-13.004 -5.099,-2.101 -10.998,0.4 -12.998,5.502 l -20.597,50.516 c 0,0.1 -0.1,0.2 -0.1,0.3 0,0.1 -0.1,0.3 -0.1,0.4 -0.1,0.3 -0.2,0.6 -0.2,0.8 0,0.1 0,0.2 -0.1,0.3 -0.1,0.4 -0.1,0.8 -0.2,1.2 0,0.4 0,0.7 0,1.1 0,0.1 0,0.2 0,0.3 0,0.3 0.1,0.6 0.1,0.9 -0.002,0.103 -0.002,0.103 -0.002,0.203 z"
               id="path3442" />
          </g>
        </g>
      </g>
      <g
         id="g3444" />
      <g
         id="g3446" />
      <g
         id="g3448" />
      <g
         id="g3450" />
      <g
         id="g3452" />
      <g
         id="g3454" />
      <g
         id="g3456" />
      <g
         id="g3458" />
      <g
         id="g3460" />
      <g
         id="g3462" />
      <g
         id="g3464" />
      <g
         id="g3466" />
      <g
         id="g3468" />
      <g
         id="g3470" />
      <g
         id="g3472" />
    </g>
  </g>
  <g
     transform="translate(-14.655403,-515.9259)"
     id="layer2">
    <g
       id="text3506"
       style="font-style:normal;font-variant:normal;font-weight:normal;font-stretch:normal;font-size:102.68726349px;line-height:125%;font-family:Quicksand;letter-spacing:0px;word-spacing:0px;fill:#000000;fill-opacity:1;stroke:none;stroke-width:1px;stroke-linecap:butt;stroke-linejoin:miter;stroke-opacity:1">
      <path
         id="path3422"
         style="font-style:normal;font-variant:normal;font-weight:normal;font-stretch:normal;font-size:231.04632568px;font-family:Quicksand;"
         d="m 444.04846,601.68353 q 3.0036,0 4.85197,2.07941 2.07942,1.84837 2.07942,4.85198 0,2.77255 -2.07942,4.85197 -1.84837,1.84837 -4.85197,1.84837 l -76.93843,0 0,57.99263 66.54134,0 q 3.00361,0 4.85198,1.84837 2.07941,1.84837 2.07941,4.85197 0,3.0036 -2.07941,4.85197 -1.84837,1.84837 -4.85198,1.84837 l -66.54134,0 0,69.77599 q 0,3.00361 -2.07941,5.08302 -1.84838,1.84837 -4.85198,1.84837 -3.23465,0 -5.31406,-1.84837 -1.84837,-2.07941 -1.84837,-5.08302 l 0,-147.86964 q 0,-3.00361 1.84837,-4.85198 2.07941,-2.07941 5.08302,-2.07941 l 84.10086,0 z" />
      <path
         id="path3424"
         style="font-style:normal;font-variant:normal;font-weight:normal;font-stretch:normal;font-size:231.04632568px;font-family:Quicksand;"
         d="m 571.7882,645.35128 q 3.0036,0 4.85197,2.07942 2.07942,2.07942 2.07942,5.08302 l 0,103.97084 q 0,3.00361 -2.07942,5.08302 -1.84837,1.84837 -4.85197,1.84837 -3.0036,0 -5.08302,-1.84837 -1.84837,-2.07941 -1.84837,-5.08302 l 0,-15.4801 q -5.77616,10.39709 -17.32848,17.55952 -11.55231,7.16244 -25.18405,7.16244 -15.4801,0 -27.9566,-8.08662 -12.24546,-8.08662 -19.40789,-22.18045 -6.93139,-14.09383 -6.93139,-31.65335 0,-17.55952 7.16243,-31.4223 7.16244,-14.09382 19.4079,-21.9494 12.4765,-7.85557 27.49451,-7.85557 13.86278,0 25.41509,6.70034 11.55232,6.70034 17.32848,17.55952 l 0,-14.32487 q 0,-3.0036 1.84837,-5.08302 2.07942,-2.07942 5.08302,-2.07942 z m -48.05764,107.43654 q 12.01441,0 21.48731,-6.23825 9.70395,-6.46929 15.01801,-17.55952 5.54511,-11.32127 5.54511,-25.18405 0,-13.40068 -5.54511,-24.49091 -5.31406,-11.09022 -15.01801,-17.32847 -9.4729,-6.4693 -21.48731,-6.4693 -12.01441,0 -21.71835,6.23825 -9.4729,6.23825 -15.01801,17.32848 -5.31407,10.85917 -5.31407,24.72195 0,13.86278 5.31407,25.18405 5.31406,11.09023 14.78696,17.55952 9.70395,6.23825 21.9494,6.23825 z" />
      <path
         id="path3426"
         style="font-style:normal;font-variant:normal;font-weight:normal;font-stretch:normal;font-size:231.04632568px;font-family:Quicksand;"
         d="m 688.82759,750.47736 q 3.0036,0 4.85197,1.84837 1.84837,1.84837 1.84837,4.62093 0,2.77255 -1.84837,4.62092 -1.84837,1.84837 -4.85197,1.84837 l -75.09006,0 q -3.0036,0 -4.85197,-2.07941 -1.84837,-2.31047 -1.84837,-4.62093 0,-3.0036 2.07942,-5.31406 l 68.38971,-94.729 -57.99263,0 q -2.77255,0 -4.85197,-1.84837 -1.84837,-1.84837 -1.84837,-4.62092 0,-2.77256 1.84837,-4.62093 2.07942,-1.84837 4.85197,-1.84837 l 70.93122,0 q 2.77256,0 4.62093,2.07941 1.84837,2.07942 1.84837,4.85198 0,2.54151 -1.84837,5.08302 l -68.62076,94.72899 62.38251,0 z" />
      <path
         id="path3428"
         style="font-style:normal;font-variant:normal;font-weight:normal;font-stretch:normal;font-size:231.04632568px;font-family:Quicksand;"
         d="m 821.33629,645.35128 q 3.0036,0 4.85197,2.07942 2.07942,2.07942 2.07942,5.08302 l 0,103.97084 q 0,3.00361 -2.07942,5.08302 -1.84837,1.84837 -4.85197,1.84837 -3.00361,0 -5.08302,-1.84837 -1.84837,-2.07941 -1.84837,-5.08302 l 0,-15.4801 q -5.77616,10.39709 -17.32848,17.55952 -11.55231,7.16244 -25.18405,7.16244 -15.4801,0 -27.9566,-8.08662 -12.24546,-8.08662 -19.40789,-22.18045 -6.93139,-14.09383 -6.93139,-31.65335 0,-17.55952 7.16243,-31.4223 7.16244,-14.09382 19.40789,-21.9494 12.47651,-7.85557 27.49452,-7.85557 13.86278,0 25.41509,6.70034 11.55232,6.70034 17.32848,17.55952 l 0,-14.32487 q 0,-3.0036 1.84837,-5.08302 2.07941,-2.07942 5.08302,-2.07942 z m -48.05764,107.43654 q 12.01441,0 21.48731,-6.23825 9.70394,-6.46929 15.01801,-17.55952 5.54511,-11.32127 5.54511,-25.18405 0,-13.40068 -5.54511,-24.49091 -5.31407,-11.09022 -15.01801,-17.32847 -9.4729,-6.4693 -21.48731,-6.4693 -12.01441,0 -21.71835,6.23825 -9.4729,6.23825 -15.01801,17.32848 -5.31407,10.85917 -5.31407,24.72195 0,13.86278 5.31407,25.18405 5.31406,11.09023 14.78696,17.55952 9.70395,6.23825 21.9494,6.23825 z" />
      <path
         id="path3430"
         style="font-style:normal;font-variant:normal;font-weight:normal;font-stretch:normal;font-size:231.04632568px;font-family:Quicksand;"
         d="m 918.27463,644.4271 q 20.79416,0 30.9602,13.16964 10.16604,12.93859 10.16604,33.50171 l 0,65.38611 q 0,3.00361 -2.07942,5.08302 -1.84837,1.84837 -4.85197,1.84837 -3.0036,0 -5.08302,-1.84837 -1.84837,-2.07941 -1.84837,-5.08302 l 0,-65.38611 q 0,-15.01801 -7.16243,-24.25986 -7.16244,-9.4729 -22.4115,-9.4729 -9.70394,0 -18.4837,4.62093 -8.54872,4.62092 -13.86278,12.4765 -5.31407,7.62453 -5.31407,16.63533 l 0,65.38611 q 0,3.00361 -2.07942,5.08302 -1.84837,1.84837 -4.85197,1.84837 -3.0036,0 -5.08302,-1.84837 -1.84837,-2.07941 -1.84837,-5.08302 l 0,-157.1115 q 0,-3.0036 1.84837,-4.85197 2.07942,-2.07942 5.08302,-2.07942 3.0036,0 4.85197,2.07942 2.07942,1.84837 2.07942,4.85197 l 0,67.69658 q 6.23825,-9.935 17.32848,-16.17325 11.09022,-6.46929 22.64254,-6.46929 z" />
    </g>
  </g>
</svg>
